<svg height='100px' width='100px'  fill="#01011c" xmlns:dc="http://purl.org/dc/elements/1.1/" xmlns:cc="http://creativecommons.org/ns#" xmlns:rdf="http://www.w3.org/1999/02/22-rdf-syntax-ns#" xmlns:svg="http://www.w3.org/2000/svg" xmlns="http://www.w3.org/2000/svg" xmlns:sodipodi="http://sodipodi.sourceforge.net/DTD/sodipodi-0.dtd" xmlns:inkscape="http://www.inkscape.org/namespaces/inkscape" version="1.1" x="0px" y="0px" viewBox="0 0 100 100"><g transform="translate(0,-952.36218)"><path style="text-indent:0;text-transform:none;direction:ltr;block-progression:tb;baseline-shift:baseline;color:#000000;enable-background:accumulate;" d="m 68.781251,992.37506 a 2.0002,2.0002 0 0 1 1.125,0.5625 c 2.0564,2.0082 3.3437,4.8227 3.3437,7.93754 0,0.9878 -0.134,1.9398 -0.375,2.8437 a 2.0002,2.0002 0 0 1 -1.9062,1.5 l -17.562503,0 a 2.0002,2.0002 0 0 1 -1.9375,-1.5 c -0.2251,-0.8887 -0.3438,-1.8559 -0.3438,-2.8437 0,-3.10964 1.2719,-5.92614 3.3438,-7.93754 a 2.0002,2.0002 0 0 1 2.7812,0 c 1.2747,1.2359 3.0189,2 4.9376,2 1.9308,0 3.6627,-0.7641 4.9374,-2 a 2.0002,2.0002 0 0 1 1.656303,-0.5625 z" fill="#01011c" fill-opacity="1" stroke="none" marker="none" visibility="visible" display="inline" overflow="visible"></path><path style="text-indent:0;text-transform:none;direction:ltr;block-progression:tb;baseline-shift:baseline;color:#000000;enable-background:accumulate;" d="m 62.187548,982.00006 c 3.2043,0 5.843703,2.6394 5.843703,5.8437 0,3.1994 -2.639403,5.8438 -5.843703,5.8438 -3.2043,0 -5.8438,-2.6506 -5.8438,-5.8438 0,-3.198 2.6395,-5.8437 5.8438,-5.8437 z" fill="#01011c" fill-opacity="1" stroke="none" marker="none" visibility="visible" display="inline" overflow="visible"></path><path d="m 56.843748,958.36366 a 2.0002,2.0002 0 0 1 1.7812,2 l 0,2.0625 5.9063,0 a 2.0002,2.0002 0 0 1 2,2 l 0,2.5 13.312503,0 a 2.0002,2.0002 0 0 1 2,2 l 0,75.43754 a 2.0002,2.0002 0 0 1 -2,2 l -59.687503,0 a 2.0002,2.0002 0 0 1 -2,-2 l 0,-75.43754 a 2.0002,2.0002 0 0 1 2,-2 l 13.2813,0 0,-2.5 a 2.0002,2.0002 0 0 1 2,-2 l 5.9062,0 0,-2.0625 a 2.0002,2.0002 0 0 1 2,-2 l 13.2812,0 a 2.0002,2.0002 0 0 1 0.2188,0 z m 21.000003,12.5625 -11.312502,0 0,2.5625 a 2.0002,2.0002 0 0 1 -2,2 l -29.0937,0 a 2.0002,2.0002 0 0 1 -2,-2 l 0,-2.5625 -11.2813,0 0,71.43754 55.687502,0 0,-71.43754 z" style="text-indent:0;text-transform:none;direction:ltr;block-progression:tb;baseline-shift:baseline;color:#000000;enable-background:accumulate;" fill="#01011c" fill-opacity="1" stroke="none" marker="none" visibility="visible" display="inline" overflow="visible"></path><path style="text-indent:0;text-transform:none;direction:ltr;block-progression:tb;baseline-shift:baseline;color:#000000;enable-background:accumulate;" d="m 71.249951,1008.3126 a 2.0029871,2.0029871 0 1 1 -0.2187,4 l -42.531303,0 a 2.0002,2.0002 0 1 1 0,-4 l 42.531303,0 a 2.0002,2.0002 0 0 1 0.2187,0 z" fill="#01011c" fill-opacity="1" stroke="none" marker="none" visibility="visible" display="inline" overflow="visible"></path><path style="text-indent:0;text-transform:none;direction:ltr;block-progression:tb;baseline-shift:baseline;color:#000000;enable-background:accumulate;" d="m 71.249951,1020.7813 a 2.0029871,2.0029871 0 1 1 -0.2187,4 l -42.531303,0 a 2.0002,2.0002 0 1 1 0,-4 l 42.531303,0 a 2.0002,2.0002 0 0 1 0.2187,0 z" fill="#01011c" fill-opacity="1" stroke="none" marker="none" visibility="visible" display="inline" overflow="visible"></path><path style="text-indent:0;text-transform:none;direction:ltr;block-progression:tb;baseline-shift:baseline;color:#000000;enable-background:accumulate;" d="m 71.249951,1033.2501 a 2.0029871,2.0029871 0 1 1 -0.2187,4 l -42.531303,0 a 2.0002,2.0002 0 1 1 0,-4 l 42.531303,0 a 2.0002,2.0002 0 0 1 0.2187,0 z" fill="#01011c" fill-opacity="1" stroke="none" marker="none" visibility="visible" display="inline" overflow="visible"></path><path style="text-indent:0;text-transform:none;direction:ltr;block-progression:tb;baseline-shift:baseline;color:#000000;enable-background:accumulate;" d="m 45.531248,995.84376 a 2.0021961,2.0021961 0 1 1 -0.1875,4 l -16.8438,0 a 2.0002,2.0002 0 1 1 0,-4 l 16.8438,0 a 2.0002,2.0002 0 0 1 0.1875,0 z" fill="#01011c" fill-opacity="1" stroke="none" marker="none" visibility="visible" display="inline" overflow="visible"></path></g></svg>