<svg height='100px' width='100px'  fill="#01011c" xmlns="http://www.w3.org/2000/svg" xmlns:xlink="http://www.w3.org/1999/xlink" version="1.1" x="0px" y="0px" viewBox="0 0 49 49" enable-background="new 0 0 49 49" xml:space="preserve"><circle cx="24.5" cy="28.223" r="4.569"></circle><path d="M27.305,34.009h-5.61c-1.983,0-3.591,1.607-3.591,3.591v6.732h12.792v-6.732C30.896,35.617,29.289,34.009,27.305,34.009z"></path><circle cx="13.827" cy="16.193" r="7.98"></circle><circle cx="34.076" cy="13.43" r="8.763"></circle><path d="M17.093,28.223c0-0.666,0.096-1.308,0.262-1.921H8.927c-3.464,0-6.272,2.808-6.272,6.272v11.76h12.611v-6.732  c0-2.277,1.194-4.277,2.985-5.419C17.522,31.034,17.093,29.679,17.093,28.223z"></path><path d="M39.457,24.53h-8.546c0.629,1.089,0.995,2.347,0.995,3.692c0,1.456-0.429,2.812-1.158,3.959  c1.791,1.142,2.985,3.142,2.985,5.419v6.732h12.612V31.418C46.345,27.614,43.261,24.53,39.457,24.53z"></path></svg>